<svg id="Layer_1" data-name="Layer 1" xmlns="http://www.w3.org/2000/svg" viewBox="0 0 23.49 19.35"><defs><style>.cls-1{fill:#314c79;}.cls-2{fill:#56bda2;}.cls-3{fill:#d3bd2b;}.cls-4{fill:none;}.cls-5{fill:#2494a2;}</style></defs><title>carpenter</title><path class="cls-1" d="M19.71,2.32a1.53,1.53,0,0,1,.16.77,2.61,2.61,0,0,0,.48,1.58,11.42,11.42,0,0,0,.78,1c.46.53.95,1,1.43,1.55a.92.92,0,0,0,.66.31.68.68,0,0,1,.53.29l-.5.52c-.69.71-1.39,1.42-2.07,2.15a1,1,0,0,1-.78.31,6.2,6.2,0,0,1-.74-.08,1.39,1.39,0,0,0-1,.16.75.75,0,0,1-1-.12L17,10.23A1.35,1.35,0,0,0,15.51,10a.2.2,0,0,1-.26-.07L13.87,8.45c-.09-.09-.09-.15,0-.24.61-.71,1.21-1.43,1.83-2.13A.57.57,0,0,1,16,5.92a.85.85,0,0,0,.53-.25c.57-.6,1.14-1.19,1.7-1.79l1.28-1.41C19.59,2.42,19.65,2.38,19.71,2.32Zm-2.4,4a.52.52,0,0,0,.17.47c.6.71,1.19,1.42,1.8,2.12q.31.38.66.72a.69.69,0,0,0,.71.17,1.06,1.06,0,0,0,.74-.74.63.63,0,0,0-.11-.63c-.83-1-1.67-2-2.52-2.93a.55.55,0,0,0-.3-.16A1,1,0,0,0,17.31,6.36ZM15.53,7.91c-.17-.32-.55-.37-.71-.11a.15.15,0,0,0,0,.12A1.28,1.28,0,0,0,15.53,7.91Zm0,.16h-.61s-.09,0-.13.06a.36.36,0,0,0,.08.15C15.07,8.47,15.39,8.39,15.53,8.07Zm2,1.65h.67c.09,0,.09-.08,0-.14a.34.34,0,0,0-.34-.16A.46.46,0,0,0,17.57,9.72Zm.76.19h-.72a.37.37,0,0,0,.72,0Z" transform="translate(-0.25 -2.32)"/><path class="cls-2" d="M17.64,21.68l-1.25-.81c.74-.81,1.48-1.59,2.3-2.34.06.1.12.18.17.25.19.32.38.63.56.95,0,0,0,.13,0,.15-.57.6-1.15,1.19-1.73,1.77Z" transform="translate(-0.25 -2.32)"/><path class="cls-3" d="M15.53,7.91a1.28,1.28,0,0,1-.7,0,.15.15,0,0,1,0-.12C15,7.54,15.36,7.59,15.53,7.91Z" transform="translate(-0.25 -2.32)"/><path class="cls-3" d="M15.53,8.07c-.14.32-.46.4-.66.21a.36.36,0,0,1-.08-.15s.09-.06.13-.06Z" transform="translate(-0.25 -2.32)"/><path class="cls-3" d="M17.57,9.72a.46.46,0,0,1,.37-.3.34.34,0,0,1,.34.16c0,.06,0,.13,0,.14Z" transform="translate(-0.25 -2.32)"/><path class="cls-3" d="M18.33,9.91a.37.37,0,0,1-.72,0Z" transform="translate(-0.25 -2.32)"/><path class="cls-4" d="M5.9,19.67a.44.44,0,0,0,0,.87.43.43,0,0,0,.45-.41A.45.45,0,0,0,5.9,19.67Z" transform="translate(-0.25 -2.32)"/><path class="cls-1" d="M7.49,8l.14-.16c.24-.27.25-.39,0-.68s-.29-.35-.43-.54a5.42,5.42,0,0,1-.42-.64A.46.46,0,0,1,7,5.28,2.18,2.18,0,0,1,7.43,5a3.71,3.71,0,0,1,1.3-.29,12.06,12.06,0,0,1,2.55.14c.23,0,.24,0,.24-.2,0-.07,0-.13,0-.2s0-.15-.14-.18a11.85,11.85,0,0,0-4.7-.4,3.56,3.56,0,0,0-1.6.52A16.62,16.62,0,0,0,3.1,6a1.68,1.68,0,0,0-.61,1.22,1.44,1.44,0,0,1-.22.72,1.62,1.62,0,0,1-1.07.65.68.68,0,0,0-.31.14c-.2.19-.38.4-.56.59a.19.19,0,0,0,0,.3l1.5,1.52a.2.2,0,0,0,.31,0c.21-.2.43-.39.64-.6a.48.48,0,0,0,.1-.23,1.84,1.84,0,0,1,.38-1.11l.37-.41a.73.73,0,0,1,.83-.22.94.94,0,0,1,.22.07c.3.18.61.35.9.55s.44.23.7,0L7.5,8Z" transform="translate(-0.25 -2.32)"/><path class="cls-3" d="M7.49,8,6.27,9.19l.05,0h0L9,11.84l1.16-1.17C9.26,9.77,8.38,8.87,7.49,8Z" transform="translate(-0.25 -2.32)"/><path class="cls-4" d="M5.9,19.67a.44.44,0,0,0,0,.87.43.43,0,0,0,.45-.41A.45.45,0,0,0,5.9,19.67Z" transform="translate(-0.25 -2.32)"/><path class="cls-5" d="M11.51,11.39l-.91-.91a.14.14,0,0,0-.23,0l-.22.2h0L9,11.85l0,.05-.38.3,1.11,1.26c.05.06.07.11.05.16l1.77-2.17Z" transform="translate(-0.25 -2.32)"/><path class="cls-4" d="M5.9,19.67a.44.44,0,0,0,0,.87.43.43,0,0,0,.45-.41A.45.45,0,0,0,5.9,19.67Z" transform="translate(-0.25 -2.32)"/><path class="cls-5" d="M13,16.88l.07.31,3.12,3.48,2.3-2.43a.68.68,0,0,1-.09-.06l-1.27-1.26-1.39-1.41a.31.31,0,0,1-.07-.09l-.71-.16Z" transform="translate(-0.25 -2.32)"/><path class="cls-2" d="M20.34,11.68a4.71,4.71,0,0,0-.35-.41,1.16,1.16,0,0,0-.4-.2,1.23,1.23,0,0,0-.91.2,1,1,0,0,1-1.21-.16l-.73-.67a.88.88,0,0,0-.62-.24,1,1,0,0,0-.77.29L13.72,8.8,11.6,11.47l0,0L9.81,13.62s0,.05,0,.08l-.83,1.09C7.59,16.52,6.23,18.24,4.88,20a.37.37,0,0,0,0,.54c.19.29.4.57.6.86l0,.05.82.25,0-.47.44.18v-.46l.44.17v-.47l.45.19v-.47l.45.18,0-.46.42.14,0-.45.44.17v-.46l.46.18,0-.47.45.18,0-.46.44.17V18.6l.41.14v-.46l.29.13c.15.05.17,0,.17-.11V18l.45.19,0-.48.44.18,0-.46.44.17v-.45l.44.14V17.1l.08.09L13,16.88l2-1.62.71.16a.46.46,0,0,1,0-.31l.44.18,0-.49.42.19,0-.47.43.18,0-.46.44.18-.06-.5.45.2,0-.47.43.18v-.48l.44.2v-.49l.44.2,0-.48.43.2,0-.49.45.19v-.49l.42.18A.79.79,0,0,0,20.34,11.68ZM5.88,20.54a.44.44,0,0,1,0-.87.45.45,0,0,1,.43.46A.43.43,0,0,1,5.88,20.54Z" transform="translate(-0.25 -2.32)"/><path class="cls-2" d="M11,17.58l.29.48.38.15,0-.46.42.14,0-.45.44.18v-.47l.46.19,0-.48.45.18,0-.46.44.18V16.3l.41.14V16l.3.13c.14.05.16,0,.16-.11v-.3l.46.19,0-.48.45.18,0-.46.44.17v-.45l.2.07L16,14.48Z" transform="translate(-0.25 -2.32)"/></svg>